# xmcd
#
# Track frame offsets:
#	150
#	10659
#	27045
#	41460
#	65533
#	81681
#	110272
#
# Disc length: 1976 seconds
#
# Revision: 1
# Processed by: cddbd v1.4PL0 Copyright (c) Steve Scherf et al.
# Submitted via: EasyCDDAExtractor 5.1.0
#
DISCID=4e07b607
DTITLE=quinoline yellow - cyriack parasol [skam SKA021 CD] 2003
DYEAR=1900
DGENRE=Electronic
TTITLE0=afraction of crouching
TTITLE1=factungconceal
TTITLE2=see 14 across
TTITLE3=opentoedwellies
TTITLE4=gran goy
TTITLE5=eu jach
TTITLE6=weekendrush
EXTD=
EXTT0=
EXTT1=
EXTT2=
EXTT3=
EXTT4=
EXTT5=
EXTT6=
PLAYORDER=
